<svg xmlns="http://www.w3.org/2000/svg" viewBox="0 0 1440 320"><path fill="#f3f4f5" fill-opacity="0.2" d="M0,64L16,80C32,96,64,128,96,144C128,160,160,160,192,138.7C224,117,256,75,288,58.7C320,43,352,53,384,74.7C416,96,448,128,480,122.7C512,117,544,75,576,101.3C608,128,640,224,672,256C704,288,736,256,768,234.7C800,213,832,203,864,192C896,181,928,171,960,149.3C992,128,1024,96,1056,112C1088,128,1120,192,1152,224C1184,256,1216,256,1248,256C1280,256,1312,256,1344,256C1376,256,1408,256,1424,256L1440,256L1440,320L1424,320C1408,320,1376,320,1344,320C1312,320,1280,320,1248,320C1216,320,1184,320,1152,320C1120,320,1088,320,1056,320C1024,320,992,320,960,320C928,320,896,320,864,320C832,320,800,320,768,320C736,320,704,320,672,320C640,320,608,320,576,320C544,320,512,320,480,320C448,320,416,320,384,320C352,320,320,320,288,320C256,320,224,320,192,320C160,320,128,320,96,320C64,320,32,320,16,320L0,320Z"></path></svg>