<svg xmlns="http://www.w3.org/2000/svg" viewBox="0 0 1440 320"><path fill="#f3f4f5" fill-opacity="0.2" d="M0,0L18.5,5.3C36.9,11,74,21,111,32C147.7,43,185,53,222,85.3C258.5,117,295,171,332,176C369.2,181,406,139,443,144C480,149,517,203,554,192C590.8,181,628,107,665,112C701.5,117,738,203,775,224C812.3,245,849,203,886,192C923.1,181,960,203,997,202.7C1033.8,203,1071,181,1108,149.3C1144.6,117,1182,75,1218,53.3C1255.4,32,1292,32,1329,53.3C1366.2,75,1403,117,1422,138.7L1440,160L1440,320L1421.5,320C1403.1,320,1366,320,1329,320C1292.3,320,1255,320,1218,320C1181.5,320,1145,320,1108,320C1070.8,320,1034,320,997,320C960,320,923,320,886,320C849.2,320,812,320,775,320C738.5,320,702,320,665,320C627.7,320,591,320,554,320C516.9,320,480,320,443,320C406.2,320,369,320,332,320C295.4,320,258,320,222,320C184.6,320,148,320,111,320C73.8,320,37,320,18,320L0,320Z"></path></svg>